<?xml version="1.0" standalone="no"?>
<!DOCTYPE svg PUBLIC "-//W3C//DTD SVG 20010904//EN"
 "http://www.w3.org/TR/2001/REC-SVG-20010904/DTD/svg10.dtd">
<svg version="1.0" xmlns="http://www.w3.org/2000/svg"
 width="259.000000pt" height="109.000000pt" viewBox="0 0 259.000000 109.000000"
 preserveAspectRatio="xMidYMid meet">

<g transform="translate(0.000000,109.000000) scale(0.100000,-0.100000)"
fill="#000000" stroke="none">
<path d="M1010 980 c-28 -28 -27 -93 1 -121 17 -17 29 -20 61 -16 56 7 68 22
68 78 0 38 -4 51 -22 63 -31 22 -84 20 -108 -4z"/>
<path d="M80 960 c-20 -20 -27 -74 -12 -96 13 -19 50 -34 86 -34 l36 0 0 -178
c0 -161 2 -181 18 -195 26 -24 87 -22 112 3 18 18 20 33 20 195 l0 175 38 0
c55 0 82 23 82 68 0 21 -7 48 -16 60 -15 21 -21 22 -180 22 -151 0 -166 -2
-184 -20z"/>
<path d="M516 958 c-22 -31 -20 -84 4 -108 18 -18 33 -20 149 -20 101 0 130
-3 134 -14 9 -23 -2 -26 -97 -26 -111 -1 -165 -12 -188 -41 -38 -46 -26 -67
106 -197 130 -128 149 -138 194 -106 51 36 46 89 -12 143 -14 14 -26 28 -26
32 0 3 20 12 43 18 24 6 55 22 69 36 50 50 59 176 17 245 -31 50 -69 60 -233
60 -138 0 -146 -1 -160 -22z"/>
<path d="M1222 964 c-17 -12 -22 -25 -22 -59 0 -53 24 -75 82 -75 l37 0 3
-181 c3 -203 6 -209 78 -209 66 0 70 13 70 213 l0 177 43 0 c70 0 106 55 76
113 -7 12 -17 25 -23 29 -6 4 -81 8 -166 8 -125 0 -160 -3 -178 -16z"/>
<path d="M1670 960 c-18 -18 -20 -33 -20 -187 1 -200 13 -249 73 -297 34 -27
48 -31 114 -35 95 -4 143 10 182 54 43 50 51 90 51 278 0 154 -2 169 -20 187
-12 12 -33 20 -52 20 -69 0 -78 -24 -78 -213 0 -136 -2 -156 -18 -170 -26 -24
-68 -21 -86 5 -13 18 -16 54 -16 180 0 145 -2 160 -20 178 -12 12 -33 20 -55
20 -22 0 -43 -8 -55 -20z"/>
<path d="M2165 955 c-14 -13 -25 -35 -25 -48 0 -13 27 -63 61 -112 l60 -89
-60 -87 c-34 -49 -61 -97 -61 -109 0 -34 17 -57 51 -69 46 -16 78 4 112 67 16
28 32 52 36 52 4 0 20 -24 37 -52 36 -64 68 -83 113 -67 33 12 51 35 51 66 0
10 -27 58 -60 108 -68 102 -70 76 17 205 24 36 43 75 43 88 0 30 -43 72 -74
72 -42 0 -55 -10 -87 -71 -18 -32 -35 -59 -38 -59 -4 0 -21 27 -39 59 -18 32
-39 62 -48 65 -32 12 -66 5 -89 -19z"/>
<path d="M990 646 c0 -208 3 -216 77 -216 70 0 73 10 73 218 l0 181 -37 -15
c-32 -14 -41 -14 -75 -1 l-38 15 0 -182z"/>
<path d="M1465 370 c-73 -16 -105 -57 -105 -135 0 -37 6 -52 33 -81 28 -31 42
-37 85 -42 96 -9 142 19 142 88 0 48 -18 60 -101 67 -58 6 -59 6 -59 -21 0
-25 3 -26 50 -26 36 0 52 -4 56 -15 10 -25 -16 -45 -56 -45 -52 0 -68 8 -85
41 -22 42 -18 67 15 101 25 25 36 29 68 25 21 -2 47 -9 59 -16 19 -9 24 -8 33
9 8 16 6 22 -12 33 -29 18 -84 26 -123 17z"/>
<path d="M1710 297 c-35 -18 -50 -53 -50 -124 0 -61 1 -63 25 -63 24 0 25 3
25 58 0 72 17 99 59 96 36 -2 63 29 35 40 -25 10 -67 7 -94 -7z"/>
<path d="M1870 293 c-63 -32 -65 -128 -3 -169 37 -24 108 -14 141 20 36 36 37
96 2 131 -34 33 -95 41 -140 18z m109 -55 c31 -55 -30 -109 -84 -74 -49 32
-25 101 36 101 26 0 37 -6 48 -27z"/>
<path d="M2072 235 c3 -50 9 -70 26 -87 12 -12 23 -20 26 -17 2 2 2 41 -1 87
-6 79 -7 82 -31 82 -24 0 -24 -1 -20 -65z"/>
</g>
</svg>
