<svg xmlns="http://www.w3.org/2000/svg" viewBox="0 0 24 24" width="24" height="24">
  <path fill="#000" d="M21.92 6.19c-.81.36-1.68.61-2.59.72a4.4 4.4 0 0 0 1.92-2.42 8.78 8.78 0 0 1-2.79 1.06 4.38 4.38 0 0 0-7.46 3.99 12.45 12.45 0 0 1-9-4.56 4.37 4.37 0 0 0-.59 2.2 4.39 4.39 0 0 0 1.95 3.65 4.34 4.34 0 0 1-1.98-.55v.06a4.38 4.38 0 0 0 3.51 4.29 4.4 4.4 0 0 1-1.94.07 4.39 4.39 0 0 0 4.1 3.21 8.78 8.78 0 0 1-5.44 1.87 12.42 12.42 0 0 0 6.74 1.98c8.06 0 12.48-6.67 12.48-12.47 0-.19 0-.38-.01-.57a8.92 8.92 0 0 0 2.18-2.28z"/>
</svg>
